<svg xmlns="http://www.w3.org/2000/svg" xml:space="preserve" viewBox="0 0 47.5 47.5" enable-background="new 0 0 47.5 47.5" id="clipboard">
  <defs>
    <clipPath id="a">
      <path d="M0 38h38V0H0v38Z"></path>
    </clipPath>
  </defs>
  <g clip-path="url(#a)" transform="matrix(1.25 0 0 -1.25 0 47.5)">
    <path d="M0 0a2 2 0 0 0-2-2h-24a2 2 0 0 0-2 2v27a2 2 0 0 0 2 2h24a2 2 0 0 0 2-2V0Z" transform="translate(33 3)" fill="#c1694f" fill-opacity="1" fill-rule="nonzero" stroke="none"></path>
    <path d="M0 0a1 1 0 0 0-1-1h-20a1 1 0 0 0-1 1v23a1 1 0 0 0 1 1h20a1 1 0 0 0 1-1V0Z" transform="translate(30 5)" fill="#fff" fill-opacity="1" fill-rule="nonzero" stroke="none"></path>
    <path d="M0 0h-4a3 3 0 1 1-6 0h-4a2 2 0 0 1-2-2v-5H2v5a2 2 0 0 1-2 2" transform="translate(26 34)" fill="#ccd6dd" fill-opacity="1" fill-rule="nonzero" stroke="none"></path>
    <path d="M0 0a2 2 0 1 0-4.001.001A2 2 0 0 0 0 0" transform="translate(21 34)" fill="#292f33" fill-opacity="1" fill-rule="nonzero" stroke="none"></path>
    <path d="M0 0a1 1 0 0 0-1-1h-9a1 1 0 0 0 0 2h9a1 1 0 0 0 1-1" transform="translate(21 23)" fill="#99aab5" fill-opacity="1" fill-rule="nonzero" stroke="none"></path>
    <path d="M0 0a1 1 0 0 0-1-1h-16a1 1 0 0 0 0 2h16a1 1 0 0 0 1-1" transform="translate(28 19)" fill="#99aab5" fill-opacity="1" fill-rule="nonzero" stroke="none"></path>
    <path d="M0 0a1 1 0 0 0-1-1h-16a1 1 0 1 0 0 2h16a1 1 0 0 0 1-1" transform="translate(28 15)" fill="#99aab5" fill-opacity="1" fill-rule="nonzero" stroke="none"></path>
    <path d="M0 0a1 1 0 0 0-1-1h-16a1 1 0 1 0 0 2h16a1 1 0 0 0 1-1" transform="translate(28 11)" fill="#99aab5" fill-opacity="1" fill-rule="nonzero" stroke="none"></path>
    <path d="M0 0a1 1 0 0 0-1-1h-9a1 1 0 1 0 0 2h9a1 1 0 0 0 1-1" transform="translate(28 7)" fill="#99aab5" fill-opacity="1" fill-rule="nonzero" stroke="none"></path>
  </g>
</svg>
